<svg width="20" height="20" fill="none" xmlns="http://www.w3.org/2000/svg"><path fill-rule="evenodd" clip-rule="evenodd" d="M3 17h5.5a.5.5 0 01.5.5v1a.5.5 0 01-.5.5H3a2 2 0 01-2-2V3a2 2 0 012-2h5.5a.5.5 0 01.5.5v1a.5.5 0 01-.5.5H3v14zM13.64 4.15l5.14 5.13a.77.77 0 01.22.53v.38a.75.75 0 01-.22.53l-5.14 5.13a.5.5 0 01-.71 0l-.71-.7a.5.5 0 010-.71L15.67 11H5.5a.5.5 0 01-.5-.5v-1a.5.5 0 01.5-.5h10.17l-3.45-3.44a.49.49 0 010-.7l.71-.71a.5.5 0 01.71 0z" fill="#000"/><path d="M3 17h-.5v.5H3V17zM3 3v-.5h-.5V3H3zm15.78 6.28l.357-.35-.004-.004-.353.354zm-5.14-5.13l-.355.352.002.002.353-.354zM19 9.81h.5v-.006l-.5.006zm0 .38h.5-.5zm-.22.53l.353.354-.353-.354zm-5.14 5.13l-.353-.354-.002.002.355.352zm-.71 0l.355-.352-.004-.004-.351.356zm-.71-.7l-.352.355.001.001.351-.356zm0-.71l.352.355h.001l-.353-.355zM15.67 11l.353.354.857-.854h-1.21v.5zm0-2v.5h1.21l-.857-.854L15.67 9zm-3.45-3.44l.353-.354-.003-.003-.35.357zm0-.7l.35.357.004-.003-.354-.354zm.71-.71l.354.354.001-.002-.355-.352zM8.5 16.5H3v1h5.5v-1zm1 1a1 1 0 00-1-1v1h1zm0 1v-1h-1v1h1zm-1 1a1 1 0 001-1h-1v1zm-5.5 0h5.5v-1H3v1zM.5 17A2.5 2.5 0 003 19.5v-1A1.5 1.5 0 011.5 17h-1zm0-14v14h1V3h-1zM3 .5A2.5 2.5 0 00.5 3h1A1.5 1.5 0 013 1.5v-1zm5.5 0H3v1h5.5v-1zm1 1a1 1 0 00-1-1v1h1zm0 1v-1h-1v1h1zm-1 1a1 1 0 001-1h-1v1zM3 3.5h5.5v-1H3v1zM3.5 17V3h-1v14h1zm15.633-8.074l-5.14-5.13-.706.708 5.14 5.13.706-.708zm.367.878a1.27 1.27 0 00-.363-.874l-.714.7a.27.27 0 01.077.186l1-.012zm0 .386v-.38h-1v.38h1zm-.367.884a1.25 1.25 0 00.367-.884h-1a.25.25 0 01-.073.176l.706.708zm-5.14 5.13l5.14-5.13-.706-.708-5.14 5.13.706.708zm-.708.294a1 1 0 00.71-.296l-.71-.704v1zm-.71-.296a1 1 0 00.71.296v-1l-.71.704zm-.706-.696l.71.7.702-.712-.71-.7-.702.712zm-.297-.711a1 1 0 00.296.71l.704-.71h-1zm.296-.71a1 1 0 00-.296.71h1l-.704-.71zm3.449-3.44l-3.45 3.44.706.71 3.45-3.44-.706-.71zM5.5 11.5h10.17v-1H5.5v1zm-1-1a1 1 0 001 1v-1h-1zm0-1v1h1v-1h-1zm1-1a1 1 0 00-1 1h1v-1zm10.17 0H5.5v1h10.17v-1zm-3.803-2.586l3.45 3.44.706-.708-3.45-3.44-.706.708zm-.294-.704c0 .266.107.52.297.707l.7-.714a.01.01 0 01.003.007h-1zm.297-.707a.99.99 0 00-.297.707h1a.01.01 0 01-.003.007l-.7-.714zm.706-.707l-.71.71.708.708.71-.71-.708-.708zm.709-.294a1 1 0 00-.71.296l.71.704v-1zm.71.296a1 1 0 00-.71-.296v1l.71-.704z" fill="#fff"/></svg>