<svg width="21" height="21" fill="none" xmlns="http://www.w3.org/2000/svg"><path fill-rule="evenodd" clip-rule="evenodd" d="M15.643 14.147l4.221 4.228c.189.21.18.53-.02.729l-.74.74a.528.528 0 01-.749 0l-4.221-4.228a2.752 2.752 0 01-.317-.38l-.791-1.057a7.381 7.381 0 01-4.612 1.617 7.4 7.4 0 01-3.22-14.068 7.38 7.38 0 018.988 2.081 7.406 7.406 0 01-.048 9.24l1.055.729c.165.105.317.23.454.37zM3.137 8.398a5.28 5.28 0 005.277 5.284 5.27 5.27 0 003.731-1.548 5.288 5.288 0 001.546-3.736 5.28 5.28 0 00-5.277-5.284 5.28 5.28 0 00-5.277 5.284z" fill="#000"/><path d="M19.864 18.375l.28-.251-.007-.007-.007-.007-.265.265zm-4.22-4.228l-.27.262.004.003.265-.265zm4.2 4.957l-.265-.267v.002l.264.265zm-.74.74l-.265-.265.266.265zm-.749 0l.267-.264-.001-.001-.266.265zm-4.221-4.228l-.266.265.266-.265zm-.317-.38l.309-.213-.004-.006-.005-.006-.3.225zm-.791-1.057l.3-.225-.232-.31-.302.242.234.293zm-4.612 1.617v-.375h-.001v.375zm-7.226-5.744l-.366.083.366-.083zm4.005-8.324l-.162-.338.162.338zm8.99 2.081l-.295.233.294-.233zm-.05 9.24l-.29-.236-.255.314.333.23.213-.309zm1.056.729l-.213.308.01.007.203-.316zm-3.044-1.644l.266.265-.266-.265zm7.985 5.976l-4.222-4.228-.53.53 4.221 4.228.53-.53zm-.023 1.26a.904.904 0 00.036-1.246l-.557.501a.154.154 0 01-.006.212l.527.533zm-.737.739l.739-.74-.53-.53-.74.74.531.53zm-.64.266c.24 0 .472-.096.641-.267l-.533-.528a.152.152 0 01-.108.045v.75zm-.641-.267c.17.17.4.267.641.267v-.75a.152.152 0 01-.108-.045l-.533.528zm-4.22-4.227l4.221 4.228.53-.53-4.22-4.228-.531.53zm-.36-.432c.106.155.227.3.36.432l.53-.53a2.374 2.374 0 01-.273-.328l-.617.426zm-.783-1.045l.791 1.057.6-.45-.791-1.057-.6.45zM8.414 16.17c1.76 0 3.47-.599 4.846-1.699l-.468-.586a7.006 7.006 0 01-4.378 1.535v.75zM.822 10.135a7.765 7.765 0 007.593 6.036l-.002-.75a7.015 7.015 0 01-6.86-5.453l-.731.167zM5.031 1.39a7.776 7.776 0 00-4.209 8.745l.731-.167a7.026 7.026 0 013.802-7.902l-.324-.676zm9.446 2.187A7.756 7.756 0 005.03 1.39l.324.676a7.006 7.006 0 018.533 1.976l.589-.465zm-.051 9.707a7.78 7.78 0 00.05-9.707l-.588.465a7.031 7.031 0 01-.046 8.77l.584.472zm.976.185l-1.055-.73-.426.618 1.055.729.426-.617zm.51.417a2.952 2.952 0 00-.52-.424l-.405.631c.14.09.27.197.388.316l.537-.524zm-7.498-.579a4.905 4.905 0 01-4.902-4.909h-.75c0 3.125 2.53 5.66 5.652 5.66v-.75zm3.466-1.438a4.898 4.898 0 01-3.466 1.438v.75c1.5 0 2.937-.596 3.997-1.658l-.531-.53zm1.436-3.471c0 1.302-.517 2.55-1.436 3.472l.53.53a5.663 5.663 0 001.656-4.002h-.75zm-4.902-4.91a4.905 4.905 0 014.902 4.91h.75c0-3.125-2.53-5.66-5.652-5.66v.75zm-4.902 4.91a4.905 4.905 0 014.902-4.91v-.75a5.655 5.655 0 00-5.652 5.66h.75z" fill="#fff"/></svg>