<svg width="21" height="21" fill="none" xmlns="http://www.w3.org/2000/svg"><path d="M6.766 13.577h11.158a.615.615 0 00.591-.447l2.461-8.613a.616.616 0 00-.591-.784H5.347l-.44-1.98a.615.615 0 00-.6-.481H.615a.615.615 0 100 1.23h3.198l2.221 9.996a1.848 1.848 0 00-1.112 1.694c0 1.017.828 1.845 1.846 1.845h11.156a.615.615 0 000-1.23H6.768a.616.616 0 01-.002-1.23zm12.803-8.614l-2.11 7.383H7.262l-1.64-7.383H19.57zM6.152 17.883c0 1.018.828 1.846 1.846 1.846a1.848 1.848 0 001.846-1.846 1.848 1.848 0 00-1.846-1.846 1.848 1.848 0 00-1.846 1.846zm1.846-.615a.616.616 0 11-.001 1.232.616.616 0 01.001-1.232zm6.85.615c0 1.018.828 1.846 1.845 1.846a1.848 1.848 0 001.846-1.846 1.848 1.848 0 00-1.846-1.846 1.848 1.848 0 00-1.845 1.846zm1.845-.615a.616.616 0 11-.001 1.232.616.616 0 01.001-1.232z" fill="#000"/></svg>