<svg width="22" height="22" fill="none" xmlns="http://www.w3.org/2000/svg"><path fill-rule="evenodd" clip-rule="evenodd" d="M16.002 6A5 5 0 0111 11a5 5 0 115.002-5zM14 6a3 3 0 10-6 0 3 3 0 006 0zm6.892 13.55l-1.89-3.79A5.002 5.002 0 0014.53 13H7.47a5.002 5.002 0 00-4.471 2.76l-1.891 3.79a1 1 0 00.89 1.45h18.006a1 1 0 00.89-1.45zM4.788 16.66L3.618 19h14.764l-1.17-2.34a3 3 0 00-2.68-1.66H7.468a3 3 0 00-2.68 1.66z" fill="#000"/><path d="M19.002 15.76l.448-.223v-.001l-.448.224zm1.891 3.79l-.447.223v.002l.447-.225zM14.531 13v-.5.5zM7.47 13v-.5.5zm-4.471 2.76l-.447-.224.447.224zm-1.891 3.79l.447.225v-.002l-.447-.223zm.04.973l-.425.262.426-.262zm.85.477l-.001.5h.001V21zm18.006 0v.5h.001l-.001-.5zM3.618 19l-.447-.224-.362.724h.809V19zm1.17-2.34l.447.224-.447-.224zM18.382 19v.5h.81l-.363-.724-.447.224zm-1.17-2.34l-.447.223.447-.223zM14.532 15v-.5.5zm-7.063 0v-.5.5zM11 11.5A5.5 5.5 0 0016.502 6h-1A4.5 4.5 0 0111 10.5v1zM5.499 6A5.5 5.5 0 0011 11.5v-1A4.5 4.5 0 016.499 6h-1zM11 .5A5.5 5.5 0 005.499 6h1A4.5 4.5 0 0111 1.5v-1zM16.502 6A5.5 5.5 0 0011 .5v1A4.5 4.5 0 0115.502 6h1zM11 3.5A2.5 2.5 0 0113.501 6h1a3.5 3.5 0 00-3.5-3.5v1zM8.5 6A2.5 2.5 0 0111 3.5v-1A3.5 3.5 0 007.5 6h1zM11 8.5A2.5 2.5 0 018.5 6h-1A3.5 3.5 0 0011 9.5v-1zM13.501 6a2.5 2.5 0 01-2.5 2.5v1A3.5 3.5 0 0014.5 6h-1zm5.054 9.983l1.89 3.79.895-.446-1.89-3.79-.895.446zM14.531 13.5a4.5 4.5 0 014.024 2.484l.894-.448a5.502 5.502 0 00-4.918-3.036v1zm-7.062 0h7.062v-1H7.47v1zm-4.024 2.484A4.502 4.502 0 017.469 13.5v-1a5.502 5.502 0 00-4.918 3.036l.894.448zm-1.89 3.79l1.89-3.79-.895-.447-1.89 3.79.894.446zm.019.488a.5.5 0 01-.02-.487l-.893-.45a1.5 1.5 0 00.06 1.46l.853-.523zm.425.238a.5.5 0 01-.425-.238l-.852.523a1.5 1.5 0 001.274.715l.003-1zm18.004 0H1.997v1h18.006v-1zm.423-.238a.5.5 0 01-.425.238l.003 1a1.5 1.5 0 001.274-.715l-.852-.523zm.02-.487a.5.5 0 01-.02.487l.852.523a1.5 1.5 0 00.062-1.46l-.893.45zm-16.381-.551l1.17-2.34-.894-.448-1.17 2.34.894.448zm14.317-.724H3.618v1h14.764v-1zm-1.617-1.616l1.17 2.34.895-.448-1.17-2.34-.895.448zM14.53 15.5a2.501 2.501 0 012.235 1.383l.894-.446a3.501 3.501 0 00-3.127-1.937l-.002 1zm-7.061 0h7.062v-1H7.47v1zm-2.234 1.383A2.501 2.501 0 017.47 15.5l-.002-1a3.5 3.5 0 00-3.127 1.937l.894.446z" fill="#fff"/></svg>